#!OML:ASF H:\Pregnant\Project 1\Capture day 1\Session 1\femalepreg.ASF
:FULLY-SPECIFIED
:DEGREES
1175
root 17.3449 15.3782 26.1137 -161.273 227.868 -178.175
lowerback -14.0773 -1.87559 -9.84533
upperback -4.91289 -1.19292 -3.05376
thorax 2.77656 -0.631706 2.1232
lowerneck -17.1173 -5.00878 -2.26692
upperneck 24.697 -8.51073 6.59552
head 11.2525 -3.35627 1.49918
rclavicle 2.67365e-014 2.54444e-014
rhumerus -39.2719 -0.674328 -80.6552
rradius 25.0426
rwrist -0.596168
rhand -10.7628 -13.9113
rfingers 7.12502
rthumb 15.249 -43.3292
lclavicle 2.67365e-014 2.54444e-014
lhumerus -28.5713 -10.7825 78.0588
lradius 29.2248
lwrist 40.5421
lhand -24.2654 -7.2265
lfingers 7.12502
lthumb 2.22105 22.7417
rfemur -39.3051 9.66489 18.9758
rtibia 69.4127
rfoot 1.89027 5.93249
rtoes -8.74806
lfemur -35.7989 -8.481 -21.1782
ltibia 27.8393
lfoot -10.4295 -4.31581
ltoes -21.4671
1176
root 17.3041 15.3813 26.1705 -161.052 228.268 -178.354
lowerback -14.0038 -1.84988 -9.87532
upperback -4.90877 -1.16487 -3.07654
thorax 2.73788 -0.616942 2.122
lowerneck -17.1698 -4.96392 -2.18949
upperneck 24.4815 -8.45732 6.63736
head 11.1778 -3.32305 1.50818
rclavicle -5.26779e-015 4.29375e-014
rhumerus -39.0908 -0.668588 -80.8196
rradius 25.3599
rwrist -0.730311
rhand -10.8742 -13.8506
rfingers 7.12502
rthumb 15.1417 -43.2766
lclavicle -5.26779e-015 4.29375e-014
lhumerus -28.1427 -10.6269 77.845
lradius 29.3452
lwrist 40.4866
lhand -24.504 -7.39927
lfingers 7.12502
lthumb 1.99062 22.5712
rfemur -40.3672 9.646 19.095
rtibia 69.7537
rfoot 0.591062 4.78163
rtoes -8.83403
lfemur -35.6542 -8.34082 -21.1632
ltibia 28.04
lfoot -10.7039 -3.9453
ltoes -21.6737
1177
root 17.2628 15.3838 26.2266 -160.828 228.673 -178.541
lowerback -13.9325 -1.82488 -9.91345
upperback -4.90383 -1.13668 -3.08256
thorax 2.70167 -0.601946 2.14291
lowerneck -17.241 -4.92157 -2.1122
upperneck 24.2949 -8.40041 6.645
head 11.1159 -3.2912 1.50501
rclavicle 8.44835e-014 -1.59028e-014
rhumerus -38.9 -0.631543 -80.9853
rradius 25.7126
rwrist -0.900902
rhand -10.9751 -13.7927
rfingers 7.12502
rthumb 15.0445 -43.2261
lclavicle 8.44835e-014 -1.59028e-014
lhumerus -27.7182 -10.4239 77.6483
lradius 29.4511
lwrist 40.4431
lhand -24.7493 -7.58389
lfingers 7.12502
lthumb 1.75373 22.3886
rfemur -41.3935 9.66072 19.2119
rtibia 69.9523
rfoot -0.526911 3.74195
rtoes -8.74383
lfemur -35.5147 -8.2005 -21.1446
ltibia 28.256
lfoot -10.9744 -3.57341
ltoes -21.9035
1178
root 17.2207 15.3856 26.2824 -160.608 229.08 -178.732
lowerback -13.8657 -1.80343 -9.95924
upperback -4.89297 -1.11121 -3.07679
thorax 2.67471 -0.588573 2.17982
lowerneck -17.3109 -4.87678 -2.04234
upperneck 24.1105 -8.33826 6.65251
head 11.0547 -3.25771 1.50386
rclavicle 4.26393e-014 1.90833e-014
rhumerus -38.7022 -0.519762 -81.1775
rradius 26.1154
rwrist -1.15276
rhand -11.0673 -13.7425
rfingers 7.12502
rthumb 14.9557 -43.1825
lclavicle 4.26393e-014 1.90833e-014
lhumerus -27.296 -10.1792 77.4577
lradius 29.5467
lwrist 40.4186
lhand -24.9727 -7.74359
lfingers 7.12502
lthumb 1.53789 22.2306
rfemur -42.3717 9.70562 19.3208
rtibia 70.0097
rfoot -1.51104 2.82839
rtoes -8.61358
lfemur -35.3702 -8.05875 -21.1279
ltibia 28.4818
lfoot -11.2477 -3.19592
ltoes -22.1671
1179
root 17.1779 15.3869 26.3384 -160.399 229.482 -178.926
lowerback -13.7945 -1.78006 -10.0032
upperback -4.88079 -1.08402 -3.06268
thorax 2.6467 -0.574173 2.22484
lowerneck -17.3729 -4.83596 -1.98296
upperneck 23.9413 -8.27719 6.64832
head 10.9977 -3.227 1.50027
rclavicle 5.66536e-015 3.18055e-015
rhumerus -38.518 -0.330696 -81.3913
rradius 26.5741
rwrist -1.49418
rhand -11.1397 -13.6982
rfingers 7.12502
rthumb 14.8859 -43.1434
lclavicle 5.66536e-015 3.18055e-015
lhumerus -26.8907 -9.91997 77.2863
lradius 29.637
lwrist 40.4243
lhand -25.1892 -7.89356
lfingers 7.12502
lthumb 1.32885 22.082
rfemur -43.2889 9.76719 19.424
rtibia 69.9262
rfoot -2.4338 2.03163
rtoes -8.61667
lfemur -35.2109 -7.91736 -21.1156
ltibia 28.7163
lfoot -11.5261 -2.81987
ltoes -22.4797
1180
root 17.1345 15.3877 26.3938 -160.183 229.888 -179.126
lowerback -13.7285 -1.75485 -10.0445
upperback -4.87157 -1.0545 -3.04469
thorax 2.61806 -0.558503 2.27272
lowerneck -17.4074 -4.79713 -1.94804
upperneck 23.7629 -8.21874 6.67012
head 10.9347 -3.19768 1.51022
rclavicle -5.84427e-014 -2.06736e-014
rhumerus -38.3501 -0.0533972 -81.6341
rradius 27.0945
rwrist -1.93458
rhand -11.1909 -13.657
rfingers 7.12502
rthumb 14.8366 -43.1058
lclavicle -5.84427e-014 -2.06736e-014
lhumerus -26.498 -9.64525 77.12
lradius 29.7248
lwrist 40.4532
lhand -25.3814 -8.00976
lfingers 7.12502
lthumb 1.14325 21.9669
rfemur -44.1709 9.84801 19.5183
rtibia 69.7083
rfoot -3.31063 1.3414
rtoes -8.74943
lfemur -35.058 -7.76454 -21.1046
ltibia 28.9594
lfoot -11.8064 -2.45409
ltoes -22.7824
1181
root 17.0907 15.3878 26.4487 -159.957 230.29 -179.338
lowerback -13.6656 -1.72857 -10.0756
upperback -4.86434 -1.0248 -3.02277
thorax 2.58889 -0.542656 2.31906
lowerneck -17.4248 -4.75872 -1.92568
upperneck 23.5871 -8.16014 6.70033
head 10.8705 -3.1689 1.5256
rclavicle 1.53064e-014 0
rhumerus -38.1851 0.258719 -81.886
rradius 27.6502
rwrist -2.41609
rhand -11.2261 -13.6087
rfingers 7.12502
rthumb 14.8027 -43.06
lclavicle 1.53064e-014 0
lhumerus -26.1219 -9.36177 76.9618
lradius 29.8116
lwrist 40.5085
lhand -25.5578 -8.10588
lfingers 7.12502
lthumb 0.972867 21.8717
rfemur -45.0101 9.93821 19.6117
rtibia 69.3581
rfoot -4.17185 0.733278
rtoes -9.07653
lfemur -34.9096 -7.59646 -21.092
ltibia 29.212
lfoot -12.0881 -2.10516
ltoes -23.0354
1182
root 17.0464 15.3873 26.503 -159.729 230.677 -179.556
lowerback -13.5957 -1.70847 -10.0995
upperback -4.85828 -1.00527 -2.99698
thorax 2.55586 -0.531614 2.36392
lowerneck -17.4416 -4.71783 -1.90551
upperneck 23.4203 -8.10055 6.73755
head 10.8101 -3.13891 1.54395
rclavicle -3.61788e-014 -9.54166e-015
rhumerus -38.0139 0.580604 -82.1432
rradius 28.2273
rwrist -2.89593
rhand -11.2384 -13.5613
rfingers 7.12502
rthumb 14.7908 -43.0135
lclavicle -3.61788e-014 -9.54166e-015
lhumerus -25.7659 -9.07969 76.8078
lradius 29.903
lwrist 40.6073
lhand -25.7172 -8.16735
lfingers 7.12502
lthumb 0.818846 21.8108
rfemur -45.8005 10.0238 19.7068
rtibia 68.8808
rfoot -5.00833 0.177434
rtoes -9.55184
lfemur -34.7646 -7.44396 -21.0715
ltibia 29.4756
lfoot -12.3705 -1.75209
ltoes -23.2053
1183
root 17.0018 15.3862 26.5564 -159.49 231.062 -179.785
lowerback -13.5211 -1.68857 -10.1166
upperback -4.85743 -0.988163 -2.9659
thorax 2.51494 -0.521289 2.4103
lowerneck -17.4676 -4.67724 -1.88534
upperneck 23.2734 -8.04187 6.76889
head 10.7587 -3.10933 1.55986
rclavicle -2.17669e-014 3.65764e-014
rhumerus -37.8413 0.906818 -82.3995
rradius 28.8271
rwrist -3.36791
rhand -11.2295 -13.5084
rfingers 7.12502
rthumb 14.7994 -42.96
lclavicle -2.17669e-014 3.65764e-014
lhumerus -25.4333 -8.81534 76.6655
lradius 30.0014
lwrist 40.75
lhand -25.768 -8.05731
lfingers 7.12502
lthumb 0.769853 21.921
rfemur -46.5539 10.1125 19.8048
rtibia 68.2824
rfoot -5.80878 -0.354137
rtoes -10.093
lfemur -34.6286 -7.29813 -21.0402
ltibia 29.7499
lfoot -12.6561 -1.3942
ltoes -23.3007
